<svg xmlns="http://www.w3.org/2000/svg" width="400" height="110" viewBox="0 0 400 110" fill="none"><path d="M75.6773 67.9394C75.6773 56.6401 83.2098 47.8516 103.298 47.8516H118.363V46.5967C118.363 40.3191 115.852 35.2974 107.063 35.2974C98.2759 35.2974 95.7651 40.3191 95.7651 44.0849H78.1881V42.83C78.1881 34.0415 86.9766 21.4873 107.063 21.4873C127.151 21.4873 135.939 34.0415 135.939 49.1076V85.5154H119.618L118.363 80.4937H117.108C114.597 83.0045 108.319 86.7713 98.2759 86.7713C84.4657 86.7712 75.6773 79.2377 75.6773 67.9394ZM118.363 59.1509H104.552C95.7649 59.1509 93.2531 62.9167 93.2531 66.6834C93.2531 70.4502 95.7649 72.961 103.297 72.961C113.341 72.9611 118.363 66.6835 118.363 59.1509ZM157.025 85.5153L134.426 23.9981V22.7422H152.002L167.068 66.6835H168.323L183.389 22.7422H200.965V23.9981L178.367 85.5153H157.025ZM203.992 85.5158V22.7427H221.568V85.5158H203.992ZM228.365 110V95.0411H239.672C244.698 95.0411 245.955 93.7951 247.212 90.0551L248.468 86.3905V85.1391L224.595 23.9895V22.7425H242.185L257.264 65.1242H258.52L273.599 22.7425H291.189V23.9895L266.06 88.809C259.777 105.014 254.751 110 239.672 110H228.365ZM294.285 85.5153V22.7422H310.606L311.861 27.7649H313.117C316.883 23.9981 321.904 21.4873 329.438 21.4873C345.758 21.4873 354.546 34.0415 354.546 46.5968V85.5154H336.97V49.1076C336.97 40.3191 333.204 36.5524 325.671 36.5524C318.139 36.5524 311.861 41.574 311.861 51.6184V85.5153H294.285ZM387.446 85.5153C373.636 85.5153 367.358 75.492 367.358 65.4477V37.8284H356.06V22.7623H367.358V5.1864H384.935V22.7623H398.745V30.0001V37.8283H384.935V65.4476C384.935 69.2144 386.19 70.4703 389.957 70.4703H400V85.5153H387.446ZM37.4807 86.7742C30.2961 86.7742 23.9313 85.7547 18.3865 83.717C12.8404 81.68 8.45877 78.5344 5.24227 74.2802C2.02447 70.0273 0.27777 64.7369 0.00206964 58.0472C-0.0337304 57.1776 0.39627 56.8598 1.18647 56.8598H19.8295C20.6185 56.8598 21.1911 57.2562 21.1911 58.0472V65.5018L36.3261 76.083L51.4611 65.5018C51.4611 65.5018 51.4611 63.8668 51.4611 63.1038C51.4611 60.1985 50.5673 58.7809 48.7797 57.1362C46.9909 55.4915 44.7632 54.2815 41.7022 53.3546C38.5825 52.4099 36.326 51.7734 32.7122 50.9513C29.2071 50.154 25.6708 49.3484 22.1516 48.3235C18.6306 47.2979 15.1893 45.8665 12.0507 44.0287C8.91277 42.1923 6.38667 39.717 4.47247 36.769C2.55697 33.8216 1.60057 29.9935 1.60057 25.2842C1.60057 20.1409 2.91257 15.6692 5.53777 11.8702C8.16237 8.0718 11.9418 5.1445 16.8761 3.0861C21.8104 1.0292 28.8231 0 35.8892 0C42.3628 0 48.8184 1.1376 53.792 2.8383C58.7655 4.5402 62.5967 7.181 65.6435 10.9399C68.9923 15.0714 71.0484 19.588 71.0484 26.2867C71.0484 27.1217 70.7753 27.4874 69.8672 27.4874H52.7049C51.9945 27.4874 51.4612 27.0923 51.4612 26.3V21.2693L36.3262 10.6881L21.1912 21.2693C21.1912 21.2693 21.1672 22.6186 21.1912 23.7518C21.2514 26.5961 22.0715 27.9377 24.0042 29.4381C25.9511 30.9495 28.6206 31.3877 31.7418 32.1528C35.3051 33.0263 37.8078 33.5906 40.6059 34.2182C44.5575 35.1045 47.9434 35.8523 51.7404 36.8358C55.4795 37.8043 59.0121 39.3665 62.1706 41.2203C65.3278 43.0755 67.8636 45.2175 69.7784 48.1649C71.6926 51.1129 72.6503 54.961 72.6503 59.7091C72.6503 65.5652 71.2385 70.5018 68.4168 74.5178C65.5945 78.5344 61.5491 81.5806 56.2792 83.6576C51.0101 85.7354 44.7432 86.7742 37.4807 86.7742Z" fill="#10123D"></path></svg>